<?xml version="1.0" encoding="UTF-8"?>
<svg xmlns="http://www.w3.org/2000/svg" xmlns:xlink="http://www.w3.org/1999/xlink" width="1024pt" height="1024pt" viewBox="0 0 1024 1024" version="1.1">
<defs>
<clipPath id="clip1">
  <path d="M 225 202 L 512 202 L 512 633 L 225 633 Z M 225 202 "/>
</clipPath>
<clipPath id="clip2">
  <path d="M 730.734375 730.585938 C 851.53125 609.789062 851.53125 413.929688 730.734375 293.128906 C 609.933594 172.332031 414.074219 172.332031 293.273438 293.128906 C 172.476562 413.929688 172.476562 609.789062 293.277344 730.585938 C 414.074219 851.386719 609.933594 851.386719 730.734375 730.589844 Z M 730.734375 730.585938 "/>
</clipPath>
<clipPath id="clip3">
  <path d="M 512 391 L 799 391 L 799 822 L 512 822 Z M 512 391 "/>
</clipPath>
<clipPath id="clip4">
  <path d="M 293.265625 293.414062 C 172.46875 414.210938 172.46875 610.070312 293.265625 730.871094 C 414.066406 851.667969 609.925781 851.667969 730.722656 730.871094 C 851.523438 610.070312 851.523438 414.210938 730.722656 293.414062 C 609.925781 172.613281 414.066406 172.613281 293.265625 293.410156 Z M 293.265625 293.414062 "/>
</clipPath>
</defs>
<g id="surface1">
<path style=" stroke:none;fill-rule:nonzero;fill:rgb(33.333333%,0%,0%);fill-opacity:1;" d="M 813.71875 813.554688 C 980.339844 646.925781 980.339844 376.785156 813.71875 210.160156 C 647.097656 43.53125 376.945312 43.53125 210.324219 210.160156 C 43.703125 376.785156 43.703125 646.933594 210.324219 813.554688 C 376.945312 980.1875 647.097656 980.1875 813.71875 813.558594 Z M 813.71875 813.554688 "/>
<g clip-path="url(#clip1)" clip-rule="nonzero">
<g clip-path="url(#clip2)" clip-rule="nonzero">
<path style=" stroke:none;fill-rule:nonzero;fill:rgb(65.490196%,65.490196%,65.490196%);fill-opacity:1;" d="M 368.617188 632.960938 C 289.425781 632.960938 225.230469 568.765625 225.230469 489.578125 L 225.230469 143.382812 C 225.230469 64.195312 289.425781 0 368.617188 0 C 447.804688 0 512 64.195312 512 143.382812 L 512 489.578125 C 512 568.765625 447.804688 632.960938 368.617188 632.960938 Z M 368.617188 632.960938 "/>
</g>
</g>
<g clip-path="url(#clip3)" clip-rule="nonzero">
<g clip-path="url(#clip4)" clip-rule="nonzero">
<path style=" stroke:none;fill-rule:nonzero;fill:rgb(27.45098%,27.45098%,27.45098%);fill-opacity:1;" d="M 655.382812 391.039062 C 734.574219 391.039062 798.769531 455.234375 798.769531 534.421875 L 798.769531 880.617188 C 798.769531 959.804688 734.574219 1024 655.382812 1024 C 576.195312 1024 512 959.804688 512 880.617188 L 512 534.421875 C 512 455.234375 576.195312 391.039062 655.382812 391.039062 Z M 655.382812 391.039062 "/>
</g>
</g>
</g>
</svg>
